<svg width="60" height="60" viewBox="0 0 60 60" xmlns="http://www.w3.org/2000/svg">
  <defs>
    <pattern id="hearts" x="0" y="0" width="20" height="20" patternUnits="userSpaceOnUse">
      <path d="M10 3.5C8.2 3.5 6.5 5 6.5 7.5c0 2.5 3.5 5.5 3.5 5.5s3.5-3 3.5-5.5c0-2.5-1.7-4-3.5-4z" fill="#FFD1DC" opacity="0.3"/>
    </pattern>
    <pattern id="stars" x="10" y="10" width="20" height="20" patternUnits="userSpaceOnUse">
      <path d="M10 4l1.5 3 3.5.5-2.5 2.5.5 3.5-3-1.5-3 1.5.5-3.5L4.5 7.5 8 7 10 4z" fill="#E6E6FA" opacity="0.3"/>
    </pattern>
  </defs>
  <rect width="60" height="60" fill="url(#hearts)"/>
  <rect width="60" height="60" fill="url(#stars)"/>
</svg> 